<?xml version="1.0" encoding="UTF-8"?>
<svg width="164px" height="22px" viewBox="0 0 164 22" version="1.1" xmlns="http://www.w3.org/2000/svg" xmlns:xlink="http://www.w3.org/1999/xlink">
    <!-- Generator: Sketch 52.2 (67145) - http://www.bohemiancoding.com/sketch -->
    <title>Group Copy 5</title>
    <desc>Created with Sketch.</desc>
    <defs>
        <linearGradient x1="50%" y1="3.95140896%" x2="50%" y2="99.8577493%" id="linearGradient-1">
            <stop stop-color="#7088D8" offset="0%"></stop>
            <stop stop-color="#4CC2F0" offset="100%"></stop>
        </linearGradient>
    </defs>
    <g id="Page-1" stroke="none" stroke-width="1" fill="none" fill-rule="evenodd">
        <g id="Desktop" transform="translate(-37.000000, -19.000000)">
            <g id="Group-Copy-5" transform="translate(37.000000, 19.000000)">
                <path d="M112.992,9.024 C112.992,13.944 109.896,17.328 104.256,17.328 L99,17.328 L99,0.768 L104.256,0.768 C110.016,0.768 112.992,4.152 112.992,9.024 Z M109.752,9.048 C109.752,5.232 107.544,3.384 104.232,3.384 L102.168,3.384 L102.168,14.712 L104.184,14.712 C107.664,14.712 109.752,12.936 109.752,9.048 Z M118.896,2.16 C118.896,3.12 118.128,3.792 117.192,3.792 C116.232,3.792 115.464,3.12 115.464,2.16 C115.464,1.176 116.232,0.48 117.192,0.48 C118.128,0.48 118.896,1.176 118.896,2.16 Z M118.608,17.328 L115.728,17.328 L115.728,5.736 L118.608,5.736 L118.608,17.328 Z M127.944,9.504 C127.944,8.28 127.128,7.344 125.904,7.344 C124.632,7.344 123.888,8.328 123.888,9.6 C123.888,10.8 124.656,11.712 125.904,11.712 C127.176,11.712 127.944,10.776 127.944,9.504 Z M132.048,17.808 C132.048,20.304 129.312,21.696 125.952,21.696 C122.808,21.696 120.432,20.736 120.432,18.816 C120.432,17.736 121.176,16.896 122.616,16.08 C122.16,15.72 121.944,15.288 121.944,14.832 C121.944,14.184 122.448,13.56 123.408,12.984 C122.04,12.336 121.224,11.136 121.224,9.6 C121.224,7.056 123.288,5.496 125.88,5.496 C127.224,5.496 128.328,5.88 129.168,6.576 L132,5.568 L132.384,7.872 L130.272,8.016 C130.488,8.472 130.584,9 130.584,9.528 C130.584,12.024 128.448,13.512 125.952,13.512 C125.616,13.512 125.304,13.488 125.016,13.44 C124.728,13.656 124.536,13.872 124.536,14.064 C124.536,14.448 124.896,14.544 126.696,14.808 L128.184,14.952 C130.56,15.288 132.048,16.032 132.048,17.808 Z M126.144,19.992 C128.208,19.992 129.384,19.296 129.384,18.432 C129.384,17.808 128.88,17.448 127.44,17.232 L125.88,17.04 C125.088,16.944 124.728,16.872 124.152,16.752 C123.312,17.352 122.928,17.904 122.928,18.504 C122.928,19.368 123.96,19.992 126.144,19.992 Z M137.4,2.16 C137.4,3.12 136.632,3.792 135.696,3.792 C134.736,3.792 133.968,3.12 133.968,2.16 C133.968,1.176 134.736,0.48 135.696,0.48 C136.632,0.48 137.4,1.176 137.4,2.16 Z M137.112,17.328 L134.232,17.328 L134.232,5.736 L137.112,5.736 L137.112,17.328 Z M146.4,17.328 C145.944,17.424 145.416,17.52 144.576,17.52 C142.296,17.52 140.76,16.68 140.76,14.04 L140.76,8.088 L139.128,8.088 L139.128,5.736 L140.76,5.736 L140.76,2.064 L143.616,1.632 L143.616,5.736 L145.968,5.736 L146.328,8.088 L143.616,8.088 L143.616,13.56 C143.616,14.496 144.024,15 145.128,15 C145.464,15 145.776,14.976 146.04,14.904 L146.4,17.328 Z M154.896,14.136 L154.896,11.544 C151.56,11.952 150.768,12.936 150.768,14.04 C150.768,14.88 151.296,15.384 152.184,15.384 C153.168,15.384 154.104,14.904 154.896,14.136 Z M157.776,17.328 L155.304,17.328 L155.064,15.816 C154.128,16.8 152.928,17.568 151.2,17.568 C149.232,17.568 147.912,16.368 147.912,14.352 C147.912,11.544 150.216,10.32 154.896,9.864 L154.896,9.528 C154.896,8.28 154.176,7.8 152.904,7.8 C151.56,7.8 150.288,8.184 149.04,8.736 L148.68,6.432 C150.024,5.904 151.44,5.496 153.288,5.496 C156.288,5.496 157.776,6.6 157.776,9.384 L157.776,17.328 Z M163.632,17.328 L160.752,17.328 L160.752,0.456 L163.632,0 L163.632,17.328 Z" id="Digital" fill="url(#linearGradient-1)"></path>
                <g id="Group-2" transform="translate(75.000000, 4.000000)" fill-rule="nonzero" stroke-linecap="round" stroke-width="2">
                    <path d="M0,0 L5,5" id="Line" stroke="#6F89D8"></path>
                    <path d="M13,0 L8,5" id="Line-Copy" stroke="#6F89D8"></path>
                    <path d="M0,13 L5,8" id="Line-Copy-3" stroke="#4FBDEE"></path>
                    <path d="M13,13 L8,8" id="Line-Copy-2" stroke="#4FBDEE"></path>
                </g>
                <path d="M13.416,17.328 L10.224,17.328 L10.224,10.152 L3.192,10.152 L3.192,17.328 L0,17.328 L0,0.768 L3.192,0.768 L3.192,7.32 L10.224,7.32 L10.224,0.768 L13.416,0.768 L13.416,17.328 Z M22.968,14.136 L22.968,11.544 C19.632,11.952 18.84,12.936 18.84,14.04 C18.84,14.88 19.368,15.384 20.256,15.384 C21.24,15.384 22.176,14.904 22.968,14.136 Z M25.848,17.328 L23.376,17.328 L23.136,15.816 C22.2,16.8 21,17.568 19.272,17.568 C17.304,17.568 15.984,16.368 15.984,14.352 C15.984,11.544 18.288,10.32 22.968,9.864 L22.968,9.528 C22.968,8.28 22.248,7.8 20.976,7.8 C19.632,7.8 18.36,8.184 17.112,8.736 L16.752,6.432 C18.096,5.904 19.512,5.496 21.36,5.496 C24.36,5.496 25.848,6.6 25.848,9.384 L25.848,17.328 Z M35.688,8.352 C33.888,8.472 32.424,9.432 31.584,10.68 L31.584,17.328 L28.704,17.328 L28.704,5.736 L31.152,5.736 L31.512,8.064 C32.28,6.72 33.432,5.592 35.232,5.496 L35.688,8.352 Z M39.528,11.688 C39.528,13.944 40.464,15 41.736,15 C42.792,15 43.608,14.376 44.376,13.392 L44.376,8.424 C43.656,8.088 43.104,7.92 42.12,7.92 C40.608,7.92 39.528,9.144 39.528,11.688 Z M36.624,11.856 C36.624,7.536 39,5.616 41.688,5.616 C42.792,5.616 43.68,5.808 44.376,6.048 L44.376,0.456 L47.256,0 L47.256,17.328 L44.784,17.328 L44.544,15.72 C43.728,16.704 42.6,17.568 40.992,17.568 C38.568,17.568 36.624,15.768 36.624,11.856 Z M53.472,2.16 C53.472,3.12 52.704,3.792 51.768,3.792 C50.808,3.792 50.04,3.12 50.04,2.16 C50.04,1.176 50.808,0.48 51.768,0.48 C52.704,0.48 53.472,1.176 53.472,2.16 Z M53.184,17.328 L50.304,17.328 L50.304,5.736 L53.184,5.736 L53.184,17.328 Z M66.12,17.328 L63.24,17.328 L63.24,9.744 C63.24,8.736 62.808,8.04 61.752,8.04 C60.864,8.04 59.952,8.616 59.112,9.504 L59.112,17.328 L56.232,17.328 L56.232,5.736 L58.68,5.736 L58.944,7.368 C60.024,6.336 61.248,5.496 62.808,5.496 C64.968,5.496 66.12,6.816 66.12,8.976 L66.12,17.328 Z" id="Hardin" fill="url(#linearGradient-1)"></path>
            </g>
        </g>
    </g>
</svg>